<?xml version="1.0" encoding="utf-8"?>
<!-- Generator: Adobe Illustrator 25.4.0, SVG Export Plug-In . SVG Version: 6.00 Build 0)  -->
<svg version="1.1" id="Layer_1" xmlns="http://www.w3.org/2000/svg" xmlns:xlink="http://www.w3.org/1999/xlink" x="0px" y="0px"
	 viewBox="0 0 300 300" style="enable-background:new 0 0 300 300;" xml:space="preserve">
<style type="text/css">
	.st0{fill:#002DD1;}
	.st1{fill:#FFFFFF;}
</style>
<path class="st0" d="M290.27,198.87c5.35-15.31,8.27-31.76,8.27-48.87s-2.92-33.55-8.27-48.87c-0.13-0.46-0.28-0.91-0.47-1.34
	C269.17,42.52,214.29,1.46,150,1.46S30.83,42.52,10.2,99.79c-0.19,0.43-0.35,0.88-0.47,1.34C4.38,116.44,1.46,132.88,1.46,150
	c0,17.11,2.92,33.56,8.27,48.87c0.13,0.46,0.28,0.91,0.47,1.34c20.63,57.27,75.5,98.33,139.8,98.33
	c64.29,0,119.17-41.06,139.8-98.33C289.98,199.78,290.14,199.33,290.27,198.87L290.27,198.87z"/>
<g>
	<path class="st1" d="M150,277.25c-5.66,0-14.78-10.24-22.4-33.11c-3.68-11.03-6.62-23.73-8.77-37.53h62.34
		c-2.14,13.8-5.09,26.48-8.77,37.53C164.78,267.01,155.65,277.25,150,277.25L150,277.25z"/>
	<path class="st1" d="M116.25,185.32c-1.03-11.35-1.57-23.2-1.57-35.32c0-12.12,0.54-23.96,1.57-35.31h67.51
		c1.02,11.35,1.56,23.19,1.56,35.31s-0.54,23.97-1.56,35.32H116.25z"/>
	<path class="st1" d="M22.76,150c0-12.25,1.74-24.1,4.99-35.31h67.14c-1,11.59-1.5,23.46-1.5,35.31c0,11.86,0.51,23.73,1.5,35.32
		H27.75C24.49,174.1,22.76,162.25,22.76,150L22.76,150z"/>
	<path class="st1" d="M150,22.75c5.66,0,14.78,10.24,22.4,33.11c3.68,11.03,6.63,23.73,8.77,37.53h-62.34
		c2.14-13.81,5.09-26.49,8.77-37.53C135.22,32.99,144.34,22.75,150,22.75L150,22.75z"/>
	<path class="st1" d="M205.11,114.68h67.14c3.25,11.21,4.99,23.07,4.99,35.31c0,12.25-1.75,24.11-4.99,35.32h-67.14
		c1-11.59,1.5-23.46,1.5-35.32C206.61,138.14,206.11,126.27,205.11,114.68L205.11,114.68z"/>
	<path class="st1" d="M263.94,93.39h-61.26c-3.79-26.12-10.29-49.54-19.4-66.22C218.61,36.75,247.88,61.21,263.94,93.39
		L263.94,93.39z"/>
	<path class="st1" d="M116.73,27.17c-9.12,16.67-15.61,40.1-19.4,66.22H36.06C52.12,61.21,81.39,36.75,116.73,27.17L116.73,27.17z"
		/>
	<path class="st1" d="M36.06,206.61h61.26c3.79,26.12,10.29,49.54,19.4,66.22C81.39,263.24,52.12,238.79,36.06,206.61L36.06,206.61z
		"/>
	<path class="st1" d="M183.27,272.83c9.12-16.67,15.61-40.1,19.4-66.22h61.26C247.88,238.79,218.61,263.24,183.27,272.83
		L183.27,272.83z"/>
</g>
</svg>
